# Blender v2.76 (sub 0) OBJ File: 'Common.blend'
# www.blender.org
o Cargo_Cube.018
v 0.128179 -0.000000 0.114444
v 0.128179 0.191461 0.114444
v -0.128179 -0.000000 0.114444
v -0.128179 0.191461 0.114444
v 0.128179 0.000000 -0.114444
v 0.128179 0.191461 -0.114444
v -0.128179 0.000000 -0.114444
v -0.128179 0.191461 -0.114444
v -0.128179 0.191461 0.016307
v -0.128179 0.191461 -0.016307
v -0.128179 0.000000 -0.016307
v -0.128179 -0.000000 0.016307
v 0.128179 0.191461 -0.016307
v 0.128179 0.191461 0.016307
v 0.128179 -0.000000 0.016307
v 0.128179 0.000000 -0.016307
v 0.128179 0.131152 0.114444
v -0.128179 0.131152 0.114444
v -0.128179 0.131152 -0.114444
v 0.128179 0.131152 -0.114444
v 0.128179 0.131152 -0.016307
v 0.128179 0.131152 0.016307
v -0.128179 0.131152 0.016307
v -0.128179 0.131152 -0.016307
vt 0.125000 0.125000
vt 0.375000 0.125000
vn 0.000000 -0.000000 1.000000
vn -1.000000 -0.000000 0.000000
vn 0.000000 0.000000 -1.000000
vn 1.000000 -0.000000 -0.000000
vn -0.000000 -1.000000 -0.000000
vn 0.000000 1.000000 0.000000
s off
f 17/1/1 18/1/1 3/1/1 1/1/1
f 24/1/2 19/1/2 7/1/2 11/1/2
f 19/1/3 20/1/3 5/1/3 7/1/3
f 22/1/4 17/1/4 1/1/4 15/1/4
f 16/1/5 11/1/5 7/1/5 5/1/5
f 14/1/6 9/1/6 4/1/6 2/1/6
f 6/1/6 8/1/6 10/1/6 13/1/6
f 13/2/6 10/2/6 9/2/6 14/2/6
f 1/1/5 3/1/5 12/1/5 15/1/5
f 15/1/5 12/1/5 11/1/5 16/1/5
f 20/1/4 21/1/4 16/1/4 5/1/4
f 21/1/4 22/1/4 15/1/4 16/1/4
f 18/1/2 23/1/2 12/1/2 3/1/2
f 23/1/2 24/1/2 11/1/2 12/1/2
f 9/2/2 10/2/2 24/2/2 23/2/2
f 4/1/2 9/1/2 23/1/2 18/1/2
f 13/2/4 14/2/4 22/2/4 21/2/4
f 6/1/4 13/1/4 21/1/4 20/1/4
f 14/1/4 2/1/4 17/1/4 22/1/4
f 8/1/3 6/1/3 20/1/3 19/1/3
f 10/1/2 8/1/2 19/1/2 24/1/2
f 2/1/1 4/1/1 18/1/1 17/1/1
