# Blender v2.79 (sub 0) OBJ File: 'Base.blend'
# www.blender.org
o iron_parts_Cylinder.003
v -0.063446 0.071929 -0.109891
v -0.126891 0.071929 0.000000
v -0.063446 0.071929 0.109891
v 0.063446 0.071929 0.109891
v 0.126891 0.071929 -0.000000
v 0.021558 0.065452 -0.037340
v -0.000000 0.065452 -0.043117
v -0.021559 0.065452 -0.037340
v -0.037340 0.065452 -0.021559
v -0.043117 0.065452 0.000000
v -0.037340 0.065452 0.021559
v -0.021559 0.065452 0.037340
v 0.000000 0.065452 0.043117
v 0.021559 0.065452 0.037340
v 0.037340 0.065452 0.021559
v 0.037340 0.065452 -0.021559
v 0.043117 0.065452 -0.000000
v 0.063446 0.071929 -0.109891
v 0.037340 0.000000 -0.021559
v 0.043117 0.000000 -0.000000
v 0.037340 0.000000 0.021559
v 0.021559 0.000000 0.037340
v 0.000000 0.000000 0.043117
v -0.021559 0.000000 0.037340
v -0.037340 0.000000 0.021559
v -0.043117 0.000000 0.000000
v -0.037340 0.000000 -0.021559
v -0.021559 0.000000 -0.037340
v -0.000000 0.000000 -0.043117
v 0.021558 0.000000 -0.037340
v 0.126891 0.000000 -0.000000
v 0.063446 0.000000 0.109891
v -0.063446 0.000000 0.109891
v -0.126891 0.000000 0.000000
v -0.063446 0.000000 -0.109891
v 0.063446 0.000000 -0.109891
v 0.025384 0.078139 -0.043966
v 0.058562 0.078139 -0.101433
v -0.025384 0.078139 -0.043966
v -0.058562 0.078139 -0.101433
v -0.050768 0.078139 0.000000
v -0.117125 0.078139 0.000000
v -0.025384 0.078139 0.043966
v -0.058562 0.078139 0.101433
v 0.025384 0.078139 0.043966
v 0.058562 0.078139 0.101433
v 0.050768 0.078139 -0.000000
v 0.117125 0.078139 -0.000000
v 0.043966 0.078139 -0.025384
v -0.000000 0.078139 -0.050768
v -0.043966 0.078139 -0.025384
v -0.043966 0.078139 0.025384
v 0.000000 0.078139 0.050768
v 0.043966 0.078139 0.025384
v -0.063446 0.071929 0.109891
v -0.063446 0.071929 0.109891
v -0.063446 0.000000 0.109891
v -0.063446 0.000000 0.109891
v 0.063446 0.071929 -0.109891
v 0.063446 0.071929 -0.109891
v 0.063446 0.000000 -0.109891
v 0.063446 0.000000 -0.109891
v 0.063446 0.071929 0.109891
v 0.063446 0.071929 0.109891
v 0.063446 0.000000 0.109891
v 0.063446 0.000000 0.109891
v -0.063446 0.071929 -0.109891
v -0.063446 0.071929 -0.109891
v -0.063446 0.000000 -0.109891
v -0.063446 0.000000 -0.109891
v 0.126891 0.071929 -0.000000
v 0.126891 0.071929 -0.000000
v 0.126891 0.000000 -0.000000
v 0.126891 0.000000 -0.000000
v -0.126891 0.071929 0.000000
v -0.126891 0.071929 0.000000
v -0.126891 0.000000 0.000000
v -0.126891 0.000000 0.000000
v 0.037340 0.065452 -0.021559
v 0.021558 0.065452 -0.037340
v -0.000000 0.065452 -0.043117
v -0.021559 0.065452 -0.037340
v -0.037340 0.065452 -0.021559
v -0.043117 0.065452 0.000000
v -0.037340 0.065452 0.021559
v -0.021559 0.065452 0.037340
v 0.000000 0.065452 0.043117
v 0.021559 0.065452 0.037340
v 0.037340 0.065452 0.021559
v 0.043117 0.065452 -0.000000
v 0.043117 0.000000 -0.000000
v 0.037340 0.000000 -0.021559
v 0.037340 0.000000 0.021559
v 0.021559 0.000000 0.037340
v 0.000000 0.000000 0.043117
v -0.021559 0.000000 0.037340
v -0.037340 0.000000 0.021559
v -0.043117 0.000000 0.000000
v -0.037340 0.000000 -0.021559
v -0.021559 0.000000 -0.037340
v -0.000000 0.000000 -0.043117
v 0.021558 0.000000 -0.037340
v 0.043966 0.078139 -0.025384
v 0.025384 0.078139 -0.043966
v 0.058562 0.078139 -0.101433
v -0.058562 0.078139 -0.101433
v -0.117125 0.078139 0.000000
v -0.058562 0.078139 0.101433
v 0.058562 0.078139 0.101433
v 0.117125 0.078139 -0.000000
v -0.000000 0.078139 -0.050768
v -0.025384 0.078139 -0.043966
v -0.043966 0.078139 -0.025384
v -0.050768 0.078139 0.000000
v -0.043966 0.078139 0.025384
v -0.025384 0.078139 0.043966
v 0.000000 0.078139 0.050768
v 0.025384 0.078139 0.043966
v 0.043966 0.078139 0.025384
v 0.050768 0.078139 -0.000000
vt 0.125000 0.125000
vt 0.125000 0.125000
vt 0.125000 0.125000
vt 0.125000 0.125000
vt 0.375000 0.125000
vt 0.375000 0.125000
vt 0.375000 0.125000
vt 0.375000 0.125000
vt 0.375000 0.125000
vt 0.375000 0.125000
vt 0.375000 0.125000
vt 0.375000 0.125000
vt 0.375000 0.125000
vt 0.375000 0.125000
vt 0.375000 0.125000
vt 0.375000 0.125000
vt 0.125000 0.125000
vt 0.125000 0.125000
vt 0.125000 0.125000
vt 0.125000 0.125000
vt 0.125000 0.125000
vt 0.125000 0.125000
vt 0.375000 0.125000
vt 0.375000 0.125000
vt 0.125000 0.125000
vt 0.125000 0.125000
vt 0.125000 0.125000
vt 0.125000 0.125000
vt 0.125000 0.125000
vt 0.125000 0.125000
vt 0.125000 0.125000
vt 0.125000 0.125000
vt 0.125000 0.125000
vt 0.125000 0.125000
vt 0.125000 0.125000
vt 0.125000 0.125000
vt 0.375000 0.125000
vt 0.375000 0.125000
vt 0.125000 0.125000
vt 0.375000 0.125000
vt 0.375000 0.125000
vt 0.375000 0.125000
vt 0.375000 0.125000
vt 0.375000 0.125000
vt 0.375000 0.125000
vt 0.125000 0.125000
vt 0.125000 0.125000
vt 0.125000 0.125000
vt 0.125000 0.125000
vt 0.125000 0.125000
vt 0.125000 0.125000
vt 0.375000 0.125000
vt 0.375000 0.125000
vt 0.375000 0.125000
vt 0.375000 0.125000
vt 0.125000 0.125000
vt 0.125000 0.125000
vt 0.125000 0.125000
vt 0.125000 0.125000
vt 0.125000 0.125000
vt 0.125000 0.125000
vt 0.125000 0.125000
vt 0.125000 0.125000
vt 0.125000 0.125000
vt 0.375000 0.125000
vt 0.375000 0.125000
vt 0.125000 0.125000
vt 0.375000 0.125000
vt 0.375000 0.125000
vt 0.375000 0.125000
vt 0.375000 0.125000
vt 0.125000 0.125000
vt 0.125000 0.125000
vt 0.125000 0.125000
vt 0.125000 0.125000
vt 0.375000 0.125000
vt 0.375000 0.125000
vt 0.375000 0.125000
vt 0.375000 0.125000
vt 0.125000 0.125000
vt 0.125000 0.125000
vt 0.125000 0.125000
vt 0.125000 0.125000
vt 0.125000 0.125000
vt 0.125000 0.125000
vt 0.125000 0.125000
vt 0.125000 0.125000
vt 0.125000 0.125000
vt 0.125000 0.125000
vt 0.125000 0.125000
vt 0.125000 0.125000
vt 0.125000 0.125000
vt 0.125000 0.125000
vt 0.125000 0.125000
vt 0.125000 0.125000
vt 0.125000 0.125000
vt 0.125000 0.125000
vt 0.125000 0.125000
vt 0.125000 0.125000
vt 0.125000 0.125000
vt 0.125000 0.125000
vt 0.125000 0.125000
vt 0.125000 0.125000
vt 0.125000 0.125000
vt 0.125000 0.125000
vt 0.125000 0.125000
vt 0.125000 0.125000
vt 0.125000 0.125000
vt 0.125000 0.125000
vt 0.125000 0.125000
vt 0.125000 0.125000
vt 0.125000 0.125000
vt 0.125000 0.125000
vt 0.125000 0.125000
vt 0.125000 0.125000
vt 0.125000 0.125000
vt 0.125000 0.125000
vt 0.125000 0.125000
vt 0.125000 0.125000
vt 0.125000 0.125000
vt 0.125000 0.125000
vn -0.8660 0.0000 -0.5000
vn -0.5000 0.0000 0.8660
vn -0.8660 0.0000 0.5000
vn -0.5000 0.0000 -0.8660
vn 0.0000 0.0000 -1.0000
vn 0.0000 0.0000 1.0000
vn -0.8563 0.5164 0.0000
vn -0.7416 0.5164 -0.4281
vn 0.0000 -1.0000 0.0000
vn -0.4281 0.5164 0.7416
vn -0.7416 0.5164 0.4281
vn 0.4281 0.5164 0.7416
vn 0.0000 0.5164 0.8563
vn -0.4281 0.5164 -0.7416
vn 0.5000 0.0000 -0.8660
vn 0.8660 0.0000 -0.5000
vn 0.0000 0.5164 -0.8563
vn 0.5000 0.0000 0.8660
vn -1.0000 0.0000 0.0000
vn 0.8660 0.0000 0.5000
vn 1.0000 0.0000 0.0000
vn 0.0000 1.0000 0.0000
vn 0.7416 0.5164 0.4281
vn 0.2683 0.8438 -0.4647
vn -0.2683 0.8438 -0.4647
vn 0.8563 0.5164 0.0000
vn -0.5366 0.8438 0.0000
vn 0.5366 0.8438 0.0000
vn 0.7416 0.5164 -0.4281
vn -0.2683 0.8438 0.4647
vn 0.4281 0.5164 -0.7416
vn 0.2683 0.8438 0.4647
s 1
f 77/1/1 75/2/1 67/3/1 69/4/1
f 102/5/2 92/6/3 79/7/3 80/8/2
f 94/9/4 95/10/5 87/11/5 88/12/4
f 101/13/6 102/5/2 80/8/2 81/14/6
f 93/15/1 94/9/4 88/12/4 89/16/1
f 17/17/7 15/18/8 119/19/8 47/20/7
f 62/21/9 74/22/9 20/23/9 19/24/9 30/25/9
f 6/26/10 16/27/11 103/28/11 104/29/10
f 8/30/12 7/31/13 111/32/13 112/33/12
f 15/18/8 14/34/14 118/35/14 119/19/8
f 74/22/9 66/36/9 22/37/9 21/38/9 20/23/9
f 66/36/9 58/39/9 24/40/9 23/41/9 22/37/9
f 7/31/13 6/26/10 104/29/10 111/32/13
f 96/42/15 97/43/16 85/44/16 86/45/15
f 95/10/5 96/42/15 86/45/15 87/11/5
f 57/46/3 55/47/3 76/48/3 78/49/3
f 14/34/14 13/50/17 117/51/17 118/35/14
f 100/52/18 101/13/6 81/14/6 82/53/18
f 91/54/19 93/15/1 89/16/1 90/55/19
f 65/56/20 73/57/20 71/58/20 63/59/20
f 33/60/6 32/61/6 64/62/6 56/63/6
f 58/39/9 34/64/9 26/65/9 25/66/9 24/40/9
f 34/64/9 70/67/9 28/68/9 99/69/9 26/65/9
f 70/67/9 62/21/9 30/70/9 29/71/9 28/68/9
f 61/72/5 35/73/5 68/74/5 59/75/5
f 97/43/16 98/76/21 84/77/21 85/44/16
f 98/76/21 27/78/20 83/79/20 84/77/21
f 92/6/3 91/54/19 90/55/19 79/7/3
f 27/78/20 100/52/18 82/53/18 83/79/20
f 31/80/16 36/81/16 60/82/16 72/83/16
f 50/84/22 37/85/22 105/86/22 106/87/22 39/88/22
f 113/89/22 39/88/22 106/87/22 107/90/22 114/91/22
f 115/92/22 114/91/22 107/90/22 108/93/22 116/94/22
f 53/95/22 116/94/22 108/93/22 109/96/22 45/97/22
f 54/98/22 45/97/22 109/96/22 110/99/22 120/100/22
f 49/101/22 120/100/22 110/99/22 105/86/22 37/85/22
f 9/102/23 8/30/12 112/33/12 51/103/23
f 18/104/24 1/105/25 40/106/25 38/107/24
f 16/27/11 17/17/7 47/20/7 103/28/11
f 10/108/26 9/102/23 51/103/23 41/109/26
f 1/105/25 2/110/27 42/111/27 40/106/25
f 5/112/28 18/104/24 38/107/24 48/113/28
f 11/114/29 10/108/26 41/109/26 52/115/29
f 2/110/27 3/116/30 44/117/30 42/111/27
f 12/118/31 11/114/29 52/115/29 43/119/31
f 3/116/30 4/120/32 46/121/32 44/117/30
f 13/50/17 12/118/31 43/119/31 117/51/17
f 4/120/32 5/112/28 48/113/28 46/121/32
