# 3ds Max Wavefront OBJ Exporter v0.97b - (c)2007 guruware
# File Created: 15.09.2020 13:35:39

mtllib fan_1.mtl

#
# object fan_1
#

v  0.0478 -0.0202 -0.5119
v  -0.0313 0.0167 -0.5119
v  0.0441 0.0000 -0.1301
v  -0.0432 0.0000 -0.1301
v  -0.0469 -0.0169 -0.5119
v  -0.0432 -0.0371 -0.1301
v  0.0441 -0.0371 -0.1301
v  0.0321 -0.0538 -0.5119
v  0.4672 -0.0202 -0.2145
v  0.4277 0.0167 -0.2830
v  0.1347 0.0000 -0.0269
v  0.0910 0.0000 -0.1024
v  0.4198 -0.0169 -0.2966
v  0.0910 -0.0371 -0.1024
v  0.1347 -0.0371 -0.0269
v  0.4594 -0.0538 -0.2281
v  0.4194 -0.0202 0.2974
v  0.4589 0.0167 0.2289
v  0.0906 0.0000 0.1032
v  0.1342 0.0000 0.0276
v  0.4668 -0.0169 0.2153
v  0.1342 -0.0371 0.0276
v  0.0906 -0.0371 0.1032
v  0.4272 -0.0538 0.2838
v  -0.0478 -0.0202 0.5119
v  0.0313 0.0167 0.5119
v  -0.0441 0.0000 0.1301
v  0.0432 0.0000 0.1301
v  0.0469 -0.0169 0.5119
v  0.0432 -0.0371 0.1301
v  -0.0441 -0.0371 0.1301
v  -0.0321 -0.0538 0.5119
v  -0.4672 -0.0202 0.2145
v  -0.4277 0.0167 0.2830
v  -0.1347 0.0000 0.0269
v  -0.0910 0.0000 0.1024
v  -0.4198 -0.0169 0.2966
v  -0.0910 -0.0371 0.1024
v  -0.1347 -0.0371 0.0269
v  -0.4594 -0.0538 0.2281
v  -0.4194 -0.0202 -0.2974
v  -0.4589 0.0167 -0.2289
v  -0.0906 0.0000 -0.1032
v  -0.1342 0.0000 -0.0276
v  -0.4668 -0.0169 -0.2153
v  -0.1342 -0.0371 -0.0276
v  -0.0906 -0.0371 -0.1032
v  -0.4272 -0.0538 -0.2838
# 48 vertices

vn 0.4222 0.9054 -0.0437
vn 0.3671 0.9297 -0.0318
vn 0.0602 0.9977 0.0318
vn -0.9996 0.0254 0.0087
vn -0.9063 0.4226 -0.0098
vn -0.9167 0.3994 -0.0087
vn -1.0000 0.0000 0.0098
vn 0.9167 -0.3994 -0.0087
vn 1.0000 0.0000 0.0098
vn 0.9996 -0.0254 0.0087
vn 0.9063 -0.4226 -0.0098
vn 0.0000 0.9990 0.0437
vn 0.2489 0.9054 0.3438
vn 0.2110 0.9297 0.3020
vn 0.0026 0.9977 0.0680
vn -0.5074 0.0254 -0.8614
vn -0.4446 0.4226 -0.7898
vn -0.4508 0.3994 -0.7983
vn -0.5085 0.0000 -0.8611
vn 0.4659 -0.3994 0.7896
vn 0.4915 0.0000 0.8709
vn 0.4923 -0.0254 0.8701
vn 0.4616 -0.4226 0.7799
vn -0.0378 0.9990 0.0218
vn -0.1733 0.9054 0.3875
vn -0.1560 0.9297 0.3338
vn -0.0576 0.9977 0.0363
vn 0.4923 0.0254 -0.8701
vn 0.4616 0.4226 -0.7799
vn 0.4659 0.3994 -0.7896
vn 0.4915 0.0000 -0.8709
vn -0.4508 -0.3994 0.7983
vn -0.5085 0.0000 0.8611
vn -0.5074 -0.0254 0.8614
vn -0.4446 -0.4226 0.7898
vn -0.0378 0.9990 -0.0218
vn -0.4222 0.9054 0.0437
vn -0.3671 0.9297 0.0318
vn -0.0602 0.9977 -0.0318
vn 0.9996 0.0254 -0.0087
vn 0.9063 0.4226 0.0098
vn 0.9167 0.3994 0.0087
vn 1.0000 0.0000 -0.0098
vn -0.9167 -0.3994 0.0087
vn -1.0000 0.0000 -0.0098
vn -0.9996 -0.0254 -0.0087
vn -0.9063 -0.4226 0.0098
vn 0.0000 0.9990 -0.0437
vn -0.2489 0.9054 -0.3438
vn -0.2110 0.9297 -0.3020
vn -0.0026 0.9977 -0.0680
vn 0.5074 0.0254 0.8614
vn 0.4446 0.4226 0.7898
vn 0.4508 0.3994 0.7983
vn 0.5085 0.0000 0.8611
vn -0.4659 -0.3994 -0.7896
vn -0.4915 0.0000 -0.8709
vn -0.4923 -0.0254 -0.8701
vn -0.4616 -0.4226 -0.7799
vn 0.0378 0.9990 -0.0218
vn 0.1733 0.9054 -0.3875
vn 0.1560 0.9297 -0.3338
vn 0.0576 0.9977 -0.0363
vn -0.4923 0.0254 0.8701
vn -0.4616 0.4226 0.7799
vn -0.4659 0.3994 0.7896
vn -0.4915 0.0000 0.8709
vn 0.4508 -0.3994 -0.7983
vn 0.5085 0.0000 -0.8611
vn 0.5074 -0.0254 -0.8614
vn 0.4446 -0.4226 -0.7898
vn 0.0378 0.9990 0.0218
# 72 vertex normals

vt 0.1320 0.9085 0.0000
vt 0.1298 0.9315 0.0000
vt 0.0308 0.9016 0.0000
vt 0.0295 0.9466 0.0000
vt 0.1297 0.9455 0.0000
vt 0.1293 0.9550 0.0000
vt 0.0291 0.9560 0.0000
vt 0.0295 0.9592 0.0000
vt 0.1309 0.9578 0.0000
vt 0.1305 0.9676 0.0000
vt 0.0291 0.9681 0.0000
vt 0.0291 0.9225 0.0000
vt 0.1341 0.8003 0.0000
vt 0.1338 0.7794 0.0000
vt 0.2353 0.7981 0.0000
vt 0.1342 0.8211 0.0000
vt 0.2343 0.8201 0.0000
vt 0.2340 0.8295 0.0000
vt 0.1338 0.8306 0.0000
vt 0.1338 0.8086 0.0000
vt 0.2287 0.8066 0.0000
vt 0.2283 0.8172 0.0000
vt 0.1357 0.8183 0.0000
vt 0.2350 0.7749 0.0000
vt 0.1320 0.7818 0.0000
vt 0.1298 0.8049 0.0000
vt 0.0308 0.7749 0.0000
vt 0.1342 0.8394 0.0000
vt 0.2268 0.8383 0.0000
vt 0.2287 0.8479 0.0000
vt 0.1338 0.8500 0.0000
vt 0.0295 0.9343 0.0000
vt 0.1297 0.9333 0.0000
vt 0.1293 0.9428 0.0000
vt 0.0291 0.9438 0.0000
vt 0.0291 0.7959 0.0000
vt 0.1320 0.8135 0.0000
vt 0.1298 0.8365 0.0000
vt 0.0308 0.8066 0.0000
vt 0.1342 0.8832 0.0000
vt 0.2343 0.8822 0.0000
vt 0.2340 0.8917 0.0000
vt 0.1338 0.8927 0.0000
vt 0.1318 0.9469 0.0000
vt 0.2332 0.9455 0.0000
vt 0.2328 0.9554 0.0000
vt 0.1314 0.9558 0.0000
vt 0.0291 0.8275 0.0000
vt 0.1320 0.8451 0.0000
vt 0.1298 0.8682 0.0000
vt 0.0308 0.8383 0.0000
vt 0.1342 0.8527 0.0000
vt 0.2343 0.8517 0.0000
vt 0.2340 0.8612 0.0000
vt 0.1338 0.8622 0.0000
vt 0.1342 0.9026 0.0000
vt 0.2343 0.9016 0.0000
vt 0.2340 0.9111 0.0000
vt 0.1338 0.9121 0.0000
vt 0.0291 0.8592 0.0000
vt 0.1320 0.8768 0.0000
vt 0.1298 0.8999 0.0000
vt 0.0308 0.8699 0.0000
vt 0.1318 0.9343 0.0000
vt 0.2320 0.9333 0.0000
vt 0.2316 0.9428 0.0000
vt 0.1314 0.9438 0.0000
vt 0.1342 0.8710 0.0000
vt 0.2343 0.8699 0.0000
vt 0.2340 0.8794 0.0000
vt 0.1338 0.8805 0.0000
vt 0.0291 0.8909 0.0000
# 72 texture coords

g fan_1
usemtl Color4
s 1
f 1/1/1 2/2/2 3/3/3 
s 2
f 4/4/4 2/5/5 5/6/6 6/7/7 
f 1/8/8 3/9/9 7/10/10 8/11/11 
s 1
f 2/2/2 4/12/12 3/3/3 
f 9/13/13 10/14/14 11/15/15 
s 2
f 12/16/16 10/17/17 13/18/18 14/19/19 
f 9/20/20 11/21/21 15/22/22 16/23/23 
s 1
f 10/14/14 12/24/24 11/15/15 
f 17/25/25 18/26/26 19/27/27 
s 2
f 20/28/28 18/29/29 21/30/30 22/31/31 
f 17/32/32 19/33/33 23/34/34 24/35/35 
s 1
f 18/26/26 20/36/36 19/27/27 
f 25/37/37 26/38/38 27/39/39 
s 2
f 28/40/40 26/41/41 29/42/42 30/43/43 
f 25/44/44 27/45/45 31/46/46 32/47/47 
s 1
f 26/38/38 28/48/48 27/39/39 
f 33/49/49 34/50/50 35/51/51 
s 2
f 36/52/52 34/53/53 37/54/54 38/55/55 
f 33/56/56 35/57/57 39/58/58 40/59/59 
s 1
f 34/50/50 36/60/60 35/51/51 
f 41/61/61 42/62/62 43/63/63 
s 2
f 44/64/64 42/65/65 45/66/66 46/67/67 
f 41/68/68 43/69/69 47/70/70 48/71/71 
s 1
f 42/62/62 44/72/72 43/63/63 
# 12 polygons - 12 triangles

